<?xml version="1.0" encoding="utf-8"?>
<!DOCTYPE svg PUBLIC "-//W3C//DTD SVG 20010904//EN" "http://www.w3.org/TR/2001/REC-SVG-20010904/DTD/svg10.dtd">
<svg version="1.0" xmlns="http://www.w3.org/2000/svg" width="400px" height="125px" viewBox="0 0 400 125" preserveAspectRatio="xMidYMid meet">
 <g fill="#ffffff">
  <path d="M91.8 102.1 c-4.1 -3.3 -4.5 -4.1 -3.3 -5.1 1.9 -1.6 2.1 -17.2 0.3 -18.8 -0.7 -0.5 -5.3 -1 -10.2 -1.1 -7.1 -0.2 -9.2 0.1 -10.7 1.5 -1 0.9 -1.9 2.2 -1.9 2.9 0 1.8 -5.4 6.5 -7.6 6.5 -4.5 0 -14.4 -10.1 -14.4 -14.6 0 -2.7 1.7 -3.4 8.6 -3.4 5.4 0 5.4 0 5.4 -11 0 -11 0 -11 -11.5 -11 -10.9 0 -11.7 -0.1 -15.4 -2.8 -2.2 -1.5 -4 -3.1 -4.1 -3.7 0 -0.7 37.9 -0.9 112.2 -0.7 72 0.1 112.5 -0.1 113.2 -0.8 0.6 -0.6 0 -1.9 -1.8 -3.7 -3.3 -3.3 -5.1 -6.6 -6.1 -11.1 -0.6 -2.8 -0.2 -3.6 2.5 -6.2 8.2 -7.6 24.1 0.2 34.4 17 3.1 5 3.1 5 40.5 5 37.4 0 37.4 0 41.7 2.7 2.4 1.6 4.4 3.1 4.4 3.5 0 0.4 -3.3 0.8 -7.2 1 -7.3 0.3 -7.3 0.3 -7.6 29.1 -0.2 21.8 -0.5 28.7 -1.5 28.7 -0.6 0 -3.6 -1.6 -6.5 -3.6 -4.8 -3.4 -5.1 -3.8 -3.7 -5.4 1.7 -1.9 2.2 -13 0.5 -13 -0.6 0 -2.7 0.7 -4.7 1.5 -8.4 3.5 -20.1 1.1 -28.8 -6 -6.1 -5 -6.9 -8.6 -2.3 -10.1 5.2 -1.6 8.8 -7.1 8.8 -13.4 0 -7.7 -0.5 -8 -13.5 -8 -11.5 0 -11.5 0 -11.5 29 0 26 -0.2 29 -1.6 29 -2.2 0 -11.7 -7.7 -10.4 -8.5 0.6 -0.4 1 -9.4 1 -25.1 0 -24.5 0 -24.5 -8.7 -24.2 -8.8 0.3 -8.8 0.3 -9.1 29.1 -0.2 23 -0.5 28.7 -1.6 28.7 -0.7 0 -3.4 -1.6 -5.9 -3.6 -3.8 -3 -4.5 -3.9 -3.7 -5.4 0.6 -1 1 -2.8 1 -4 0 -1.9 -0.3 -2.1 -3.2 -1.4 -12.7 3.1 -28.8 -6.7 -28.8 -17.5 0 -4.5 1.4 -7.3 4.9 -9.9 5.1 -3.7 9.4 -4 13.6 -0.8 4.3 3.3 4.4 4.6 0.5 4.6 -6.2 0 -10.7 8.5 -8 15 0.9 2.2 2.1 3.1 4.6 3.6 4.9 0.9 8.9 -1.1 12.9 -6.6 3.6 -4.8 3.6 -4.8 3.3 -18.2 -0.3 -13.3 -0.3 -13.3 -23 -13.6 -22.8 -0.2 -22.8 -0.2 -22.8 28.8 0 32.9 0.4 31.6 -8 25.3 -4.6 -3.4 -4.8 -3.8 -3.4 -5.7 0.9 -1.3 1.4 -4.6 1.4 -9.2 0 -10.8 -0.2 -11 -6.4 -7.6 -10.1 5.6 -11.1 5.8 -15.1 2.8 -3.4 -2.6 -4.7 -5.6 -2.4 -5.6 1.3 0 0.3 -6.8 -1.3 -8.7 -1.8 -2.2 -8.4 -1.6 -11.5 1.1 -2.4 2 -2.7 3.1 -2.7 7.8 0 6.1 1.9 9.3 8.6 14.1 3.2 2.3 5.1 5.7 3.2 5.7 -0.6 0 -14.2 -10.4 -20 -15.4 -2.7 -2.3 -3.4 -3.5 -3.4 -6.6 0 -4.7 3.4 -9.9 8 -12.3 7 -3.6 19.2 -0.4 26 6.8 1.3 1.4 2.7 2.5 3.1 2.5 0.4 0 3.4 -2.1 6.8 -4.6 6.1 -4.6 6.1 -4.6 6.1 -12 0 -7.4 0 -7.4 -32.5 -7.4 -32.5 0 -32.5 0 -32.5 29 0 33 0.4 31.8 -8.1 25.3 -5 -3.8 -5.6 -4.7 -3.9 -5.8 0.6 -0.4 1 -9.7 1 -24.6 0 -23.9 0 -23.9 -9 -23.9 -9 0 -9 0 -9.2 28.7 -0.3 32.7 -0.1 31.9 -8 25.4z m239.5 -22.4 c1.1 -0.7 4.2 -3.3 6.9 -5.8 4.9 -4.7 4.9 -4.7 4.6 -15 -0.3 -10.4 -0.3 -10.4 -10.5 -10.7 -5.9 -0.1 -10.3 0.1 -10.3 0.7 0 0.5 0.9 2.8 2 5.2 2.2 4.9 2.6 10 0.9 13.1 -1.6 3 -6.1 6.7 -8.2 6.8 -4.2 0 -3.1 5.8 1.4 7.2 3 0.9 10.6 0 13.2 -1.5z m-241.5 -18.7 c0.5 -13.5 0.9 -13 -10.8 -13 -10 0 -10 0 -10 11 0 11.1 0 11.1 10.3 10.8 10.2 -0.3 10.2 -0.3 10.5 -8.8z m188.7 -21 c0.9 -1.4 -5.5 -9.9 -9.6 -12.9 -2 -1.5 -5.1 -2.6 -8 -2.9 -4.5 -0.4 -4.8 -0.3 -5.5 2.2 -0.9 3.6 0.2 8.2 2.7 11.7 2 2.8 2.2 2.9 10.9 2.9 5 0 9.2 -0.5 9.5 -1z"/>
 </g>
</svg>