<!DOCTYPE svg PUBLIC "-//W3C//DTD SVG 20010904//EN" "http://www.w3.org/TR/2001/REC-SVG-20010904/DTD/svg10.dtd">
<svg version="1.0" xmlns="http://www.w3.org/2000/svg" width="447px" height="323px" viewBox="0 0 4470 3230" preserveAspectRatio="xMidYMid meet">
<g id="layer101" fill="#008bd6" stroke="none">
 <path d="M3034 3107 c-12 -12 -59 -58 -105 -101 -252 -238 -279 -267 -270 -284 5 -9 30 -41 55 -70 l46 -54 0 -434 0 -434 -475 0 -475 0 -7 28 c-3 15 -17 48 -30 73 -13 26 -23 50 -23 53 0 8 -49 84 -75 115 -91 111 -117 135 -189 173 -62 33 -93 34 -176 7 -79 -26 -151 -76 -254 -177 -82 -81 -187 -222 -217 -292 -5 -14 -16 -37 -23 -51 -20 -41 -40 -152 -32 -183 4 -15 18 -38 31 -50 43 -40 219 -66 453 -66 l142 0 0 -450 0 -450 -511 0 -511 0 -32 -26 c-17 -14 -73 -67 -124 -116 l-93 -90 3 -67 3 -66 1893 -3 1892 -2 88 79 c150 136 150 136 154 216 l3 70 -277 3 -278 2 0 1335 0 1335 -282 -1 c-278 0 -283 -1 -304 -22z m36 -352 l0 -75 180 0 180 0 0 -65 0 -65 -180 0 -180 0 0 -75 0 -75 -55 0 -55 0 0 215 0 215 55 0 55 0 0 -75z m360 -530 l0 -65 -235 0 -235 0 0 65 0 65 235 0 235 0 0 -65z m0 -247 l0 -61 -160 6 c-103 4 -162 2 -166 -4 -9 -15 -6 -17 97 -44 52 -13 123 -33 159 -42 l65 -18 3 -47 c4 -54 19 -46 -182 -98 -77 -19 -141 -41 -144 -47 -3 -10 34 -13 162 -13 l166 0 0 -60 0 -60 -235 0 -235 0 0 89 c0 83 1 89 23 95 43 12 248 66 253 66 2 0 4 6 4 13 0 16 -38 35 -94 47 -23 5 -74 17 -113 26 l-73 17 0 99 0 98 235 0 235 0 0 -62z m0 -803 l0 -195 -55 0 -55 0 0 136 0 135 -37 -3 -38 -3 -3 -112 -3 -113 -49 0 -50 0 0 116 0 115 -32 -3 -33 -3 -3 -127 -3 -128 -54 0 -55 0 0 190 0 190 235 0 235 0 0 -195z m-670 -265 l0 -450 -455 0 -455 0 0 450 0 450 455 0 455 0 0 -450z m583 -34 c44 -18 65 -54 83 -136 11 -53 12 -81 4 -117 -25 -109 -60 -143 -148 -143 -41 0 -55 5 -80 28 -27 26 -62 113 -62 157 0 36 -32 85 -55 85 -27 0 -35 -17 -35 -70 0 -48 8 -70 26 -70 10 0 14 -16 14 -61 l0 -61 -27 6 c-111 26 -141 258 -46 353 28 28 41 33 79 33 81 0 116 -40 143 -160 21 -94 30 -110 61 -110 33 0 40 14 40 78 -1 51 -17 82 -44 82 -13 0 -16 11 -16 60 0 67 5 71 63 46z"/>
 </g>
<g id="layer102" fill="#008bd6" stroke="none">
 <path d="M3098 3119 c-2 -6 -17 -12 -33 -12 -31 -2 -98 -54 -117 -92 -6 -11 13 4 43 32 29 29 54 51 57 49 2 -2 -34 -40 -80 -83 -45 -43 -118 -112 -161 -153 -76 -73 -122 -107 -82 -59 12 14 4 10 -20 -10 -54 -46 -58 -55 -35 -82 l20 -24 -11 27 c-13 29 0 58 25 58 6 0 3 -7 -6 -14 -10 -7 -18 -17 -18 -22 0 -5 23 -35 50 -67 48 -56 64 -81 38 -59 -10 8 -12 -79 -10 -434 l3 -444 -476 0 c-328 0 -475 3 -475 11 0 5 -4 8 -9 5 -4 -3 -6 5 -4 17 2 12 -3 31 -12 42 -16 19 -16 19 -5 -5 10 -23 10 -24 -4 -6 -9 10 -13 23 -10 28 8 13 -6 49 -17 43 -5 -3 -6 0 -3 8 3 8 -9 36 -27 63 -17 27 -29 41 -26 32 9 -27 -5 -21 -28 10 -15 21 -15 24 -2 13 9 -7 17 -9 17 -3 0 5 -7 15 -15 22 -8 7 -15 9 -15 4 0 -4 -20 12 -45 36 -24 24 -42 46 -39 49 2 3 23 -15 44 -39 22 -25 40 -40 40 -35 0 6 -18 29 -40 52 -28 29 -46 40 -57 36 -12 -5 -15 -2 -10 10 3 9 1 19 -5 23 -7 4 -8 3 -4 -4 4 -7 1 -12 -6 -12 -21 0 -39 16 -36 30 2 7 -4 15 -12 17 -12 4 -12 3 -1 -5 7 -5 9 -12 4 -15 -13 -8 -37 9 -29 21 3 5 -1 13 -10 16 -28 11 -83 6 -91 -7 -4 -7 -29 -21 -56 -31 -26 -10 -54 -24 -62 -32 -7 -8 -16 -10 -19 -5 -4 5 0 12 6 14 8 4 9 6 2 6 -6 1 -17 -6 -24 -14 -10 -12 -10 -15 1 -15 8 0 5 -6 -7 -15 -26 -20 -39 -19 -23 2 36 44 -69 -44 -116 -98 l-30 -34 33 29 c41 38 42 19 1 -20 -20 -18 -33 -25 -36 -17 -4 12 -41 -26 -76 -77 -9 -14 -30 -44 -47 -68 -30 -43 -39 -69 -19 -56 8 4 8 0 0 -15 -14 -25 -23 -28 -14 -3 6 15 5 15 -10 3 -14 -11 -15 -16 -5 -29 9 -11 10 -14 1 -9 -7 5 -16 -1 -22 -12 -14 -25 -14 -44 -1 -36 6 3 7 -1 3 -10 -4 -13 -8 -14 -14 -4 -6 10 -9 10 -15 -4 -3 -9 -1 -24 6 -32 10 -12 9 -15 -4 -15 -19 0 -22 -20 -3 -20 7 -1 5 -6 -6 -14 -21 -16 -21 -93 0 -89 7 2 17 -6 23 -17 6 -10 28 -25 50 -31 22 -7 40 -18 40 -26 0 -8 11 -13 28 -12 l27 1 -25 8 -25 8 25 1 c14 0 34 -6 44 -14 11 -8 31 -15 45 -14 l26 1 -25 8 -25 8 28 1 c16 1 35 -6 43 -14 13 -12 46 -15 175 -15 l159 0 0 -450 0 -450 -513 0 c-513 0 -514 0 -533 -21 l-19 -22 25 13 c14 7 -27 -37 -90 -98 -90 -87 -116 -107 -121 -94 -11 27 -21 -26 -17 -89 l3 -54 1690 0 1690 0 -1685 5 -1685 5 1883 3 1883 2 97 93 c53 51 104 97 112 102 9 6 7 2 -5 -9 -78 -71 -205 -199 -201 -203 5 -5 161 133 212 188 26 28 33 45 38 97 4 34 3 68 -1 75 -5 7 -10 -8 -14 -38 l-6 -50 -1 48 -2 47 -265 0 -265 0 0 1325 0 1325 -215 0 c-137 0 -215 4 -215 10 0 14 -87 13 -92 -1z m-41 -276 c-20 -2 -52 -2 -70 0 -17 2 0 4 38 4 39 0 53 -2 32 -4z m13 -88 c0 -43 4 -75 10 -75 6 0 10 5 10 10 0 10 331 15 341 6 2 -2 3 -36 1 -75 l-4 -71 -179 0 -179 0 0 -75 0 -75 -55 0 -55 0 0 215 0 215 55 0 55 0 0 -75z m14 -377 c-3 -4 -33 -8 -67 -8 -34 0 -57 4 -50 8 16 10 123 10 117 0z m351 -153 l0 -85 -237 0 -238 0 0 85 0 85 238 0 237 0 0 -85z m-2012 -46 c-13 -4 -33 -5 -45 0 -18 7 -14 9 22 9 36 0 40 -2 23 -9z m-263 -108 c0 -5 -9 -12 -19 -16 -11 -3 -22 -12 -25 -20 -3 -8 -11 -15 -18 -15 -7 0 1 13 17 29 31 31 45 38 45 22z m2272 -98 c2 -38 2 -71 0 -75 -2 -5 -42 -8 -90 -8 -48 0 -98 -3 -111 -7 -23 -6 -23 -7 -5 -14 10 -4 28 -7 39 -7 16 0 15 2 -5 8 l-25 8 25 1 c14 0 39 -6 55 -15 l30 -14 -30 5 -30 4 30 -14 c17 -8 39 -14 50 -14 l20 0 -20 9 c-19 8 -19 9 3 9 13 1 22 -5 22 -14 0 -8 5 -15 11 -15 5 0 7 5 4 10 -7 12 -3 12 19 4 9 -3 16 -10 16 -16 0 -5 -3 -7 -7 -5 -5 3 -6 -16 -5 -42 3 -41 1 -49 -20 -59 -22 -11 -21 -11 7 -5 17 3 27 2 22 -3 -4 -4 -17 -9 -29 -11 -12 -2 -27 -8 -34 -14 -6 -5 -16 -9 -20 -8 -5 1 -11 0 -14 -1 -8 -3 -44 -11 -65 -15 -11 -2 -22 -4 -25 -5 -3 -1 -8 -2 -12 -1 -5 0 -8 -3 -8 -9 0 -6 41 -10 103 -10 l102 0 -1 -82 -1 -83 -237 -3 c-155 -1 -236 1 -236 8 0 6 85 11 238 12 l237 3 -237 2 -238 3 0 90 c0 79 2 90 18 91 14 1 14 2 -3 6 -15 4 -10 8 20 18 86 29 169 46 194 40 14 -3 22 -2 16 2 -5 4 -11 17 -12 28 -1 19 0 19 17 -2 21 -26 30 -29 30 -9 0 8 -18 21 -40 30 -42 17 -79 21 -66 9 4 -4 15 -8 23 -8 9 0 18 -7 20 -15 4 -12 3 -13 -5 -1 -5 7 -15 10 -21 6 -7 -4 -22 4 -36 19 -23 24 -74 38 -60 16 4 -6 11 -8 16 -5 5 4 16 2 25 -3 11 -6 13 -11 5 -16 -6 -4 -11 -2 -11 4 0 7 -7 9 -16 6 -9 -4 -23 -1 -30 5 -7 6 -18 8 -24 4 -5 -3 -10 -1 -10 4 0 6 -10 10 -22 8 -22 -2 -23 1 -26 111 l-3 112 235 0 234 0 4 -67z m-2477 -117 c-36 -48 -65 -83 -65 -79 0 4 18 32 40 61 22 29 40 55 40 59 0 7 43 50 48 47 1 -1 -27 -40 -63 -88z m1813 -147 c-23 -13 -960 -7 -965 6 -2 7 164 9 489 7 325 -2 487 -6 476 -13z m7 -329 c-4 -6 -168 -9 -468 -8 l-462 3 465 5 c256 3 466 6 468 8 2 1 0 -2 -3 -8z m658 -207 l-2 -218 -56 -3 -55 -3 0 151 0 151 -37 -3 -38 -3 -2 -125 -1 -125 -51 -3 -51 -3 0 131 0 131 -32 -3 -33 -3 -3 -127 -3 -128 -54 0 -55 0 0 190 0 190 238 2 237 2 -240 6 -240 6 240 2 240 2 -2 -217z m-2080 200 c-45 -2 -122 -2 -170 0 -48 1 -11 3 82 3 94 0 133 -2 88 -3z m1407 -461 c0 -284 4 -452 10 -460 7 -9 7 -9 -2 -2 -8 6 -178 10 -465 10 l-453 0 0 450 0 450 455 0 455 0 0 -448z m288 61 c-15 -2 -42 -2 -60 0 -18 2 -6 4 27 4 33 0 48 -2 33 -4z m272 -75 c0 -7 15 -20 32 -28 18 -8 39 -30 47 -47 9 -18 23 -33 31 -34 10 0 11 -2 3 -6 -7 -2 -13 -11 -13 -19 0 -9 4 -13 9 -9 5 3 12 1 16 -5 3 -5 1 -10 -4 -10 -6 0 -11 -12 -11 -26 0 -14 4 -23 8 -20 5 3 9 -8 9 -24 0 -17 -3 -28 -6 -25 -3 3 -11 -16 -18 -42 -15 -59 -16 -66 -3 -58 6 3 7 -1 3 -10 -4 -13 -8 -14 -14 -4 -6 10 -9 9 -15 -4 -3 -10 -18 -24 -33 -32 -15 -8 -20 -14 -11 -15 9 0 27 7 40 16 l25 17 -21 -22 c-11 -12 -27 -24 -35 -25 -8 -2 -22 -6 -31 -10 -10 -5 -23 -6 -30 -3 -7 3 -3 6 10 6 43 2 22 21 -23 21 -25 0 -45 -4 -45 -10 0 -5 7 -10 17 -10 9 0 14 -3 10 -6 -9 -9 -48 6 -41 17 6 11 -52 69 -61 60 -3 -3 -3 3 1 13 6 15 4 17 -6 11 -9 -5 -11 -4 -6 4 10 15 -3 73 -15 66 -5 -4 -6 7 -3 23 6 29 -22 109 -34 97 -3 -3 0 -11 6 -17 7 -7 12 -17 12 -22 0 -6 -9 2 -19 18 l-19 28 -7 -31 c-4 -17 -11 -31 -16 -31 -14 0 -11 -27 4 -34 9 -5 9 -7 0 -12 -17 -7 -4 -34 16 -34 14 0 14 2 1 10 -8 5 -10 10 -5 10 6 0 17 -5 25 -10 10 -6 11 -10 3 -10 -9 0 -13 -19 -13 -60 0 -33 -4 -60 -10 -60 -21 0 -9 -20 13 -21 12 0 16 -3 10 -6 -20 -8 -79 16 -99 40 l-19 22 23 -19 c12 -11 22 -16 22 -12 0 13 -43 65 -51 61 -4 -3 -5 5 -1 17 3 13 1 19 -5 15 -7 -5 -9 1 -5 15 3 11 1 19 -4 16 -5 -4 -9 24 -9 63 0 38 4 69 9 69 4 0 6 9 3 20 -3 13 -1 18 6 13 6 -4 8 2 5 15 -4 12 -1 25 4 29 7 4 8 1 3 -7 -6 -9 -4 -11 4 -6 7 5 10 14 7 22 -3 8 9 24 28 39 61 46 163 27 197 -37 8 -15 8 -19 0 -14 -14 9 -14 -14 -1 -34 8 -12 10 -12 10 5 1 20 1 20 12 1 8 -15 8 -21 0 -24 -7 -2 -12 -10 -12 -18 0 -9 4 -13 9 -9 5 3 12 1 16 -5 3 -5 1 -10 -4 -10 -6 0 -11 -7 -11 -15 0 -8 5 -14 11 -12 6 1 14 -4 16 -10 3 -7 0 -13 -6 -13 -6 0 -11 -7 -11 -15 0 -8 8 -15 18 -15 14 0 15 -2 2 -10 -12 -8 -11 -10 8 -10 12 0 22 -6 23 -12 0 -10 2 -10 6 0 2 6 11 12 19 12 10 0 14 14 14 53 -1 51 -22 99 -37 83 -4 -4 0 -12 10 -17 9 -6 17 -15 17 -22 0 -9 -2 -9 -8 -1 -4 6 -16 14 -27 18 -18 5 -20 13 -17 76 3 57 7 70 20 71 10 1 7 4 -8 9 l-25 8 28 1 c15 1 27 -4 27 -11z m44 -10 c14 -6 33 -23 42 -37 l17 -26 -29 26 c-16 15 -38 31 -49 37 -27 15 -13 15 19 0z m-154 -408 c0 -15 -5 -12 -26 11 -19 22 -19 22 4 10 12 -6 22 -16 22 -21z"/>
 <path d="M3107 1924 c-4 -4 -7 -10 -7 -14 0 -10 89 -34 97 -26 3 3 -4 6 -16 6 -27 0 -24 23 4 28 10 3 15 0 11 -7 -4 -6 -2 -11 4 -11 7 0 10 6 8 13 -5 13 -89 22 -101 11z"/>
 <path d="M3288 1913 c29 -2 74 -2 100 0 26 2 2 3 -53 3 -55 0 -76 -1 -47 -3z"/>
 <path d="M3131 1641 c-14 -4 -26 -12 -29 -19 -3 -9 36 -11 165 -10 160 2 162 2 40 5 -101 3 -129 7 -133 18 -7 16 -7 16 -43 6z"/>
 <path d="M3100 883 c28 -3 57 -14 77 -29 18 -14 33 -20 33 -14 0 22 -64 50 -110 48 l-45 -1 45 -4z"/>
 <path d="M2844 2925 c-43 -41 -74 -75 -69 -75 6 0 44 34 85 75 41 41 72 75 69 75 -3 0 -41 -34 -85 -75z"/>
 <path d="M2710 2655 c13 -14 28 -25 33 -25 6 0 0 11 -13 25 -13 14 -28 25 -33 25 -6 0 0 -11 13 -25z"/>
 <path d="M820 1420 c14 -11 32 -19 40 -19 9 0 6 4 -6 9 -12 5 -25 13 -29 19 -3 6 -12 11 -18 11 -7 0 -1 -9 13 -20z"/>
 <path d="M252 338 c-45 -45 -81 -85 -80 -90 2 -4 41 30 87 77 47 47 82 87 80 89 -2 3 -42 -32 -87 -76z"/>
 </g>
<g id="layer103" fill="#008bd6" stroke="none">
 <path d="M3100 3120 c0 -5 -6 -10 -14 -10 -15 0 -19 -4 -211 -186 -77 -72 -152 -144 -167 -158 -16 -14 -28 -29 -28 -33 0 -4 23 -34 50 -66 l50 -59 0 -449 0 -449 -22 -5 c-13 -3 -232 -4 -488 -3 l-464 3 -11 35 c-17 55 -85 191 -105 210 -3 3 -16 18 -28 34 -46 60 -130 144 -151 151 -11 3 -21 11 -21 16 0 5 -3 8 -7 8 -21 -3 -33 2 -33 16 0 11 -5 12 -25 5 -16 -6 -34 -6 -50 0 -14 5 -25 6 -25 2 0 -4 -22 -15 -50 -25 -27 -10 -56 -24 -65 -33 -8 -8 -15 -13 -15 -9 0 4 -6 0 -13 -7 -8 -7 -26 -22 -41 -33 -47 -34 -147 -137 -202 -207 -66 -86 -116 -176 -143 -257 -37 -114 -22 -171 50 -193 21 -6 39 -14 39 -18 0 -4 13 -5 29 -2 16 2 32 -1 35 -7 4 -6 24 -8 51 -4 25 3 45 2 45 -3 0 -5 80 -8 180 -6 l180 4 0 -464 0 -463 -520 3 c-395 2 -520 0 -520 -9 0 -7 -52 -62 -115 -122 l-115 -110 0 -53 0 -54 1880 0 1880 0 114 108 115 107 0 68 1 67 -265 0 -265 0 0 1325 0 1325 -215 0 c-137 0 -215 4 -215 10 0 6 -20 10 -45 10 -25 0 -45 -4 -45 -10z m-10 -345 l0 -75 168 0 c93 0 171 -2 173 -4 2 -2 3 -36 1 -75 l-4 -71 -168 0 -169 0 -3 -87 -3 -88 -62 -3 -63 -3 0 241 0 240 65 0 65 0 0 -75z m345 -550 l0 -85 -237 0 -238 0 0 85 0 85 238 0 237 0 0 -85z m-3 -252 c2 -38 2 -71 0 -75 -2 -5 -47 -8 -100 -9 l-97 0 50 -14 c27 -7 51 -17 53 -23 1 -5 14 -7 27 -4 15 2 25 0 25 -7 0 -7 4 -10 9 -7 25 16 36 -6 34 -71 -1 -61 -3 -67 -24 -70 -12 -2 -28 -8 -35 -14 -6 -5 -16 -9 -20 -8 -5 1 -11 0 -14 -1 -8 -3 -44 -11 -65 -15 -11 -2 -22 -4 -25 -5 -3 -1 -8 -2 -12 -1 -5 0 -8 -3 -8 -9 0 -6 41 -10 103 -10 l102 0 -1 -82 -1 -83 -237 -3 -236 -2 0 114 c0 110 1 114 23 119 168 43 212 56 215 67 3 9 -1 11 -12 7 -9 -4 -16 -2 -16 4 0 6 -9 8 -20 4 -13 -4 -22 -1 -26 10 -5 12 -9 13 -20 4 -11 -9 -14 -8 -14 1 0 7 -7 10 -16 6 -9 -4 -23 -1 -30 5 -7 6 -18 8 -24 4 -5 -3 -10 -1 -10 4 0 6 -10 10 -22 8 -22 -2 -23 1 -26 111 l-3 112 235 0 234 0 4 -67z m-652 -1060 c0 -371 -3 -474 -12 -465 -9 9 -126 12 -465 12 l-453 0 0 460 0 460 463 3 c254 1 463 3 465 5 1 1 2 -213 2 -475z m653 260 l-2 -218 -56 -3 -55 -3 0 141 0 140 -41 0 -40 0 2 -117 2 -118 -52 -3 -51 -3 0 120 0 121 -35 0 -35 0 0 -130 0 -130 -55 0 -55 0 0 210 0 210 238 0 237 0 -2 -217z m-113 -274 c0 -5 4 -7 10 -4 20 12 68 -25 91 -72 35 -71 37 -204 6 -275 -24 -53 -45 -78 -69 -82 -7 -1 -18 -5 -24 -8 -17 -11 -107 -3 -112 10 -2 7 -7 10 -12 7 -4 -2 -14 3 -23 13 -18 20 -57 132 -57 164 0 13 -11 41 -24 62 l-24 40 -7 -32 c-3 -18 -11 -32 -16 -32 -5 0 -9 -7 -9 -15 0 -8 5 -15 10 -15 6 0 10 -6 10 -14 0 -8 9 -18 20 -21 18 -6 20 -15 20 -87 l0 -80 -32 6 c-51 10 -81 38 -105 97 -43 104 -26 236 39 301 34 34 43 38 89 38 90 0 129 -44 159 -182 19 -85 37 -114 58 -92 13 14 16 82 4 100 -4 6 -17 14 -29 18 -21 7 -23 13 -23 87 0 78 0 79 25 79 14 0 25 -5 25 -11z"/>
 </g>

</svg>