<svg xmlns="http://www.w3.org/2000/svg" width="65" height="65" viewBox="0 0 65 65"><g transform="translate(-148 -163)"><g transform="translate(18 -123)"><circle cx="32.5" cy="32.5" r="32.5" transform="translate(130 286)" fill="#ffe5d9"/><g transform="translate(147.411 299.648)"><rect width="24" height="30" rx="2" transform="translate(3.589 4.352)" fill="#fff"/><path d="M22.412,0H1.933A1.938,1.938,0,0,0,0,1.933V28.056a1.938,1.938,0,0,0,1.933,1.933H3.214V5.571A2.026,2.026,0,0,1,5.237,3.548h19.1V1.933A1.938,1.938,0,0,0,22.412,0" fill="#ffc4c4"/><path d="M31.237,40.026H10.293A2.023,2.023,0,0,1,8.27,38.008V11.163A2.026,2.026,0,0,1,10.293,9.14H31.237a2.026,2.026,0,0,1,2.023,2.023V38.008a2.023,2.023,0,0,1-2.023,2.019M10.293,10.169a.992.992,0,0,0-.99.99V38.008a.992.992,0,0,0,.99.99H31.237a.992.992,0,0,0,.99-.99V11.163a.992.992,0,0,0-.99-.99H10.293" transform="translate(-5.059 -5.592)" fill="#638eff"/><rect width="16.569" height="1.029" transform="translate(7.636 9.271)" fill="#638eff"/><rect width="16.569" height="1.029" transform="translate(7.636 12.927)" fill="#638eff"/><rect width="16.569" height="1.029" transform="translate(7.636 17.097)" fill="#638eff"/><g transform="translate(16.561 22.466)"><path d="M59.213,66.7a7.722,7.722,0,1,1-7.722-7.722A7.722,7.722,0,0,1,59.213,66.7" transform="translate(-43.339 -58.549)" fill="#fff"/><path d="M58.534,66.022H58.1a7.29,7.29,0,1,1-2.135-5.152A7.29,7.29,0,0,1,58.1,66.022h.862a8.152,8.152,0,1,0-8.152,8.152,8.152,8.152,0,0,0,8.152-8.152h-.431Z" transform="translate(-42.66 -57.87)" fill="#003974"/><path d="M60.029,65.9a2.419,2.419,0,1,0,2.419,2.419A2.419,2.419,0,0,0,60.029,65.9" transform="translate(-51.806 -62.783)" fill="#7dece2"/><path d="M56.686,78.85a4.488,4.488,0,0,0-4.406,2.935c.606,1.118,2.007,1.821,4.15,2.116,0,0,.2.019.528.019a6.754,6.754,0,0,0,4.5-1.564,4.668,4.668,0,0,0-4.624-3.506h-.151" transform="translate(-48.545 -70.705)" fill="#7dece2"/></g><rect width="7.64" height="1.029" transform="translate(7.636 20.979)" fill="#638eff"/></g></g></g></svg>